<svg xmlns="http://www.w3.org/2000/svg" xmlns:xlink="http://www.w3.org/1999/xlink" version="1.1" x="0px" y="0px" viewBox="0 0 100 125" enable-background="new 0 0 100 100" xml:space="preserve"><path d="M90.1,20.7c-6.5-6.3-13.6-9.2-21-8.5c-8,0.8-14.3,5.7-18.1,9.5c-3.8-3.8-10.2-8.7-18.1-9.5c-7.4-0.7-14.4,2.1-21,8.5  c-8.1,7.9-8.5,20.1-5.3,28.8c5.8,15.7,23,27.8,36.8,37.5c1.7,1.2,3.3,2.3,4.9,3.4c0.5,0.4,1.1,0.6,1.7,0.8c0.1,0,0.1,0,0.2,0  c0.3,0.1,0.7,0.1,1,0.1c0,0,0,0,0.1,0c0.3,0,0.6,0,0.9-0.1c0.1,0,0.2,0,0.3-0.1c0.3-0.1,0.6-0.2,0.9-0.3c0,0,0.1,0,0.1-0.1  c0.2-0.1,0.4-0.2,0.6-0.4c1.6-1.1,3.2-2.3,4.9-3.5c13.8-9.7,30.9-21.8,36.7-37.5C98.7,40.8,98.3,28.6,90.1,20.7z"/><text x="0" y="115" fill="#000000" font-size="5px" font-weight="bold" font-family="'Helvetica Neue', Helvetica, Arial-Unicode, Arial, Sans-serif">Created by Andrew Sloan</text><text x="0" y="120" fill="#000000" font-size="5px" font-weight="bold" font-family="'Helvetica Neue', Helvetica, Arial-Unicode, Arial, Sans-serif">from the Noun Project</text></svg>